<?xml version="1.0" encoding="UTF-8"?>
<svg xmlns="http://www.w3.org/2000/svg" viewBox="0 0 107 39">
  <path fill="#212529" d="M13.604 20.78a1.19 1.19 0 0 0-1.19 1.189 1.5 1.5 0 0 1-3 0 4.19 4.19 0 1 1 8.38 0 1.5 1.5 0 0 1-3 0 1.19 1.19 0 0 0-1.19-1.19Zm13.448-3a4.19 4.19 0 0 0-4.19 4.189 1.5 1.5 0 0 0 3 0 1.19 1.19 0 1 1 2.38 0 1.5 1.5 0 0 0 3 0 4.19 4.19 0 0 0-4.19-4.19Zm-1.326 8.276a1.5 1.5 0 0 0-2.054.53c-.678 1.148-1.922 1.912-3.344 1.912s-2.666-.764-3.343-1.912A1.5 1.5 0 0 0 14.4 28.11a6.876 6.876 0 0 0 11.854 0 1.5 1.5 0 0 0-.53-2.054Zm13.31-8.47a5.535 5.535 0 0 1-2.682 9.31c-2.251 6.69-8.574 11.51-16.026 11.51s-13.774-4.82-16.026-11.51a5.535 5.535 0 0 1-2.682-9.31h.001a5.531 5.531 0 0 1 2.681-1.482 16.95 16.95 0 0 1 7.3-9.08A6.09 6.09 0 0 1 8.07 1.5a1.5 1.5 0 1 1 3 0 3.094 3.094 0 0 0 3.094 3.094h.136a6.056 6.056 0 0 1-.85-3.094 1.5 1.5 0 1 1 3 0 3.094 3.094 0 0 0 3.092 3.094h.787c7.452 0 13.775 4.82 16.026 11.51a5.532 5.532 0 0 1 2.681 1.482h.001Zm-1.38 3.914c0-.7-.281-1.332-.742-1.792a2.521 2.521 0 0 0-1.741-.741l-1.126-.021-.294-1.087c-1.046-3.869-3.727-7.058-7.248-8.809.215.647.336 1.338.336 2.057a6.513 6.513 0 1 1-13.026 0 1.5 1.5 0 0 1 3 0 3.513 3.513 0 1 0 3.513-3.513h-.003c-6.417.001-11.822 4.35-13.422 10.265l-.294 1.087-1.125.02a2.521 2.521 0 0 0-1.742.741 2.533 2.533 0 0 0 1.742 4.326l1.126.021.293 1.087c1.6 5.915 7.006 10.265 13.425 10.265s11.825-4.35 13.425-10.265l.294-1.087 1.125-.02a2.533 2.533 0 0 0 2.484-2.534Zm66.267-5.346-3.259 8.137-3.363-8.137h-2.684l4.89 10.916-.6 1.404c-.147.352-.345.616-.594.792-.235.19-.528.286-.88.286-.147 0-.338-.044-.572-.132a5.998 5.998 0 0 1-.77-.308l-.924 2.002c.396.205.806.374 1.232.506.44.132.836.198 1.188.198.733 0 1.334-.147 1.804-.44.469-.279.858-.682 1.166-1.21.322-.528.638-1.144.946-1.848l5.104-12.166h-2.684Zm-13.24-4.4h2.442v15.4h-2.333l-.089-1.66c-.305.488-.674.9-1.12 1.22-.66.47-1.452.704-2.377.704-.997 0-1.87-.235-2.617-.704-.734-.484-1.313-1.159-1.738-2.024-.411-.865-.616-1.877-.616-3.036 0-1.173.205-2.185.616-3.036.425-.865 1.004-1.533 1.738-2.002.748-.484 1.62-.726 2.617-.726.924 0 1.716.242 2.377.726.436.304.798.7 1.1 1.17v-6.032Zm-.374 11.726c.249-.528.373-1.137.373-1.826 0-.69-.124-1.298-.373-1.826-.235-.528-.572-.939-1.012-1.232-.426-.293-.924-.44-1.497-.44-.586 0-1.107.147-1.561.44a3.05 3.05 0 0 0-1.078 1.232c-.25.528-.382 1.137-.396 1.826.014.69.146 1.298.396 1.826.264.528.623.946 1.078 1.254.469.293.997.44 1.584.44.557 0 1.048-.147 1.474-.44a2.96 2.96 0 0 0 1.012-1.254ZM77.685 11.754h2.442v15.4h-2.332l-.09-1.66c-.305.488-.674.9-1.12 1.22-.66.47-1.452.704-2.376.704-.998 0-1.87-.235-2.618-.704-.734-.484-1.313-1.159-1.739-2.024-.41-.865-.615-1.877-.615-3.036 0-1.173.205-2.185.615-3.036.426-.865 1.005-1.533 1.739-2.002.748-.484 1.62-.726 2.618-.726.924 0 1.715.242 2.376.726.436.304.798.7 1.1 1.17v-6.032ZM77.31 23.48c.25-.528.375-1.137.375-1.826 0-.69-.125-1.298-.375-1.826-.234-.528-.571-.939-1.011-1.232-.426-.293-.924-.44-1.497-.44-.586 0-1.107.147-1.562.44a3.052 3.052 0 0 0-1.078 1.232c-.249.528-.38 1.137-.396 1.826.015.69.147 1.298.396 1.826.265.528.624.946 1.078 1.254.47.293.998.44 1.585.44.557 0 1.048-.147 1.474-.44a2.96 2.96 0 0 0 1.011-1.254Zm-12.803 3.674h2.441v-11h-2.441v11Zm1.232-15.972c-.396 0-.741.14-1.034.418-.28.279-.419.616-.419 1.012s.14.74.419 1.034c.293.279.638.418 1.034.418s.733-.14 1.011-.418c.294-.293.44-.638.44-1.034s-.146-.733-.44-1.012a1.378 1.378 0 0 0-1.011-.418Zm-3.159.572h-3.278l-6.138 6.495v-6.495h-2.508v15.4h2.508v-5.423l1.217-1.29 5.317 6.713h3.146l-6.804-8.47 6.54-6.93Z"></path>
</svg>
