<?xml version="1.0" encoding="UTF-8"?>
<svg xmlns="http://www.w3.org/2000/svg" viewBox="0 0 180 180">
  <defs>
    <linearGradient id="a" x1="108.263" x2="58.736" y1="-17.279" y2="282.184" gradientTransform="translate(0 -3.147)" gradientUnits="userSpaceOnUse">
      <stop offset="0" stop-color="#d9cdff"></stop>
      <stop offset="1" stop-color="#f5d75f"></stop>
    </linearGradient>
  </defs>
  <path fill="url(#a)" d="M84.162 2.361a8.397 8.397 0 0 1 11.676 0l14.273 13.81a8.397 8.397 0 0 0 7.014 2.278l19.665-2.781a8.396 8.396 0 0 1 9.445 6.862l3.431 19.562a8.395 8.395 0 0 0 4.335 5.966l17.545 9.308a8.396 8.396 0 0 1 3.607 11.104l-8.722 17.843a8.397 8.397 0 0 0 0 7.374l8.722 17.843a8.396 8.396 0 0 1-3.607 11.104L154 131.942a8.395 8.395 0 0 0-4.335 5.965l-3.43 19.562a8.397 8.397 0 0 1-9.446 6.863l-19.665-2.781a8.397 8.397 0 0 0-7.014 2.279l-14.273 13.809a8.397 8.397 0 0 1-11.676 0l-14.273-13.81a8.397 8.397 0 0 0-7.014-2.278l-19.665 2.781a8.396 8.396 0 0 1-9.445-6.863l-3.432-19.562A8.396 8.396 0 0 0 26 131.942l-17.544-9.308a8.396 8.396 0 0 1-3.608-11.104l8.722-17.843a8.396 8.396 0 0 0 0-7.374L4.847 68.47a8.396 8.396 0 0 1 3.608-11.104l17.544-9.308a8.396 8.396 0 0 0 4.334-5.966l3.432-19.562a8.396 8.396 0 0 1 9.445-6.862l19.665 2.781a8.397 8.397 0 0 0 7.014-2.279L84.162 2.362v-.001Z"></path>
  <path fill="#fff" d="M84.162 16.976a8.397 8.397 0 0 1 11.676 0l10.66 10.314a8.397 8.397 0 0 0 7.014 2.279L128.2 27.49a8.396 8.396 0 0 1 9.445 6.863l2.563 14.61a8.394 8.394 0 0 0 4.334 5.966l13.104 6.953a8.396 8.396 0 0 1 3.607 11.103l-6.514 13.327a8.397 8.397 0 0 0 0 7.374l6.514 13.327a8.395 8.395 0 0 1-3.607 11.103l-13.104 6.952a8.394 8.394 0 0 0-4.334 5.967l-2.563 14.61a8.396 8.396 0 0 1-9.446 6.862l-14.687-2.077a8.397 8.397 0 0 0-7.014 2.279l-10.66 10.314a8.397 8.397 0 0 1-11.676 0l-10.66-10.314a8.397 8.397 0 0 0-7.014-2.279L51.8 152.508a8.396 8.396 0 0 1-9.445-6.862l-2.563-14.61a8.395 8.395 0 0 0-4.334-5.967l-13.104-6.952a8.395 8.395 0 0 1-3.608-11.103l6.515-13.327a8.396 8.396 0 0 0 0-7.374l-6.515-13.327a8.396 8.396 0 0 1 3.608-11.103l13.104-6.953a8.396 8.396 0 0 0 4.334-5.966l2.563-14.61A8.396 8.396 0 0 1 51.8 27.49l14.688 2.078a8.398 8.398 0 0 0 7.014-2.28l10.66-10.313v.001Z"></path>
</svg>
